<?xml version="1.0" encoding="UTF-8" standalone="no"?>
<!-- Created with Inkscape (http://www.inkscape.org/) -->

<svg
   width="200.00066mm"
   height="144.366mm"
   viewBox="0 0 200.00066 144.366"
   version="1.1"
   id="svg5"
   xmlns="http://www.w3.org/2000/svg"
   xmlns:svg="http://www.w3.org/2000/svg">
  <defs
     id="defs2" />
  <g
     id="layer1"
     transform="translate(9.3167258,-4.2985235)">
    <path
       style="fill:#e31e25;fill-opacity:1;stroke-width:0.135501"
       d="m 78.062062,148.59093 c -1.56781,-0.16273 -2.66793,-0.81634 -3.2785,-1.94786 -0.27748,-0.51425 -0.29459,-0.74508 -0.33387,-4.50542 l -0.0414,-3.96343 h 1.21693 1.21692 l 0.044,3.48918 c 0.0403,3.20018 0.0664,3.52718 0.31501,3.94808 0.37368,0.63277 1.04803,0.96389 1.96265,0.96363 1.02181,0 1.61946,-0.32251 2.00079,-1.07864 0.29171,-0.57848 0.30488,-0.74965 0.30488,-3.96341 v -3.35884 h 1.2195 1.21954 l -8.4e-4,3.55693 c -4e-4,1.96181 -0.0618,3.77648 -0.13687,4.04653 -0.56838,2.04615 -2.74861,3.12054 -5.70889,2.81325 z m 63.637908,0.009 c -1.08874,-0.10914 -2.00445,-0.49462 -2.63191,-1.10809 -0.89005,-0.87018 -0.88701,-0.85287 -0.93243,-5.28734 l -0.0413,-4.03117 h 1.22052 1.22053 l 0.0403,3.48916 c 0.0437,3.78877 0.0836,4.00896 0.82377,4.5568 0.27057,0.20029 0.63388,0.29203 1.28728,0.32509 1.11901,0.0566 1.7169,-0.2246 2.12297,-0.99862 0.25482,-0.48566 0.2815,-0.81343 0.32199,-3.95103 l 0.0442,-3.4214 h 1.21879 1.2188 l -0.0485,3.76017 c -0.0543,4.21479 -0.072,4.30448 -1.06341,5.37997 -0.60741,0.65898 -1.56579,1.12695 -2.52792,1.23438 -0.35621,0.0398 -0.80009,0.0892 -0.98639,0.10972 -0.18632,0.0205 -0.76559,-0.006 -1.28728,-0.0576 z m -150.3053118,-0.0843 -0.711384,-0.0583 v -5.12312 -5.1231 l 0.711384,-0.0855 c 1.115651,-0.13397 4.279039,-0.10034 5.250694,0.0559 1.012817,0.1628 2.043345,0.59879 2.671785,1.13034 0.239805,0.20281 0.636147,0.7752 0.880762,1.272 0.421138,0.85529 0.444752,0.98255 0.444752,2.39678 0,2.26637 -0.584388,3.55498 -2.053485,4.52809 -1.134829,0.75164 -2.157139,0.98801 -4.450598,1.02894 -1.117888,0.0201 -2.352649,0.009 -2.74391,-0.0221 z m 4.651586,-2.74013 c 1.037342,-0.47114 1.473202,-1.3712 1.388647,-2.86762 -0.05801,-1.02679 -0.290612,-1.46747 -1.045964,-1.98171 -0.484502,-0.32984 -1.659996,-0.52607 -2.304045,-0.38461 l -0.420571,0.0924 v 2.60893 c 0,1.43492 0.04065,2.64959 0.09033,2.69926 0.192918,0.1929 1.74911,0.0797 2.291599,-0.1666 z m 20.6872358,2.74942 c -0.117153,-0.0527 -0.169371,-0.44859 -0.169371,-1.28427 v -1.20824 h 0.737566 c 1.173505,0 1.159452,0.0513 1.159452,-4.23066 v -3.62842 h 1.497844 1.497844 l -0.04113,4.10303 c -0.04113,4.09673 -0.04178,4.10405 -0.387365,4.77523 -0.244238,0.47427 -0.537691,0.79059 -0.996514,1.07426 -0.57887,0.35788 -0.786523,0.40608 -1.889609,0.43861 -0.681599,0.0201 -1.315491,0.001 -1.408637,-0.0396 z m 75.101842,-0.10799 c -1.83294,-0.5812 -2.81786,-1.68654 -3.19048,-3.58059 -0.38283,-1.94579 0.10005,-3.85991 1.30059,-5.15677 1.23068,-1.32926 3.1236,-1.91675 5.27742,-1.63792 0.52168,0.0676 0.98264,0.12473 1.02433,0.12719 0.081,0.006 -0.11058,2.04923 -0.20042,2.13898 -0.0293,0.0293 -0.28762,-0.0101 -0.57407,-0.0914 -1.5952,-0.44294 -3.06139,-0.009 -3.7569,1.1152 -0.47566,0.76797 -0.62912,2.16241 -0.34836,3.16525 0.4409,1.57467 2.28247,2.34125 4.2221,1.75751 l 0.613,-0.1845 0.0855,1.01136 c 0.0471,0.55625 0.0547,1.06114 0.017,1.12202 -0.2359,0.38168 -3.45461,0.53554 -4.46979,0.21363 z M 4.9109492,143.32849 v -5.14292 l 0.475642,-0.0894 c 0.912669,-0.17122 5.0972068,0.0215 5.7650288,0.26546 1.473164,0.53824 2.221822,1.66234 2.220751,3.33453 -5.44e-4,0.8641 -0.05905,1.12286 -0.391093,1.72823 -0.705638,1.28675 -1.899852,1.93221 -3.8020238,2.05488 l -1.219515,0.0788 -0.03842,1.45663 -0.03842,1.45666 h -1.48592 -1.485937 z m 4.609785,-0.34629 c 0.7991018,-0.41324 0.9363218,-1.45168 0.278712,-2.10928 -0.343081,-0.34308 -0.497217,-0.39608 -1.15177,-0.39608 h -0.755684 v 1.26466 c 0,0.69557 0.04065,1.30534 0.09027,1.35501 0.165387,0.1654 1.137157,0.0933 1.538397,-0.1142 z m 17.8466478,2.81285 c -0.430171,-1.47177 -1.109564,-3.78877 -1.50978,-5.14885 l -0.727659,-2.47219 h 1.655116 1.655133 l 0.85261,3.0149 c 0.46892,1.6582 0.89904,3.16736 0.95583,3.35368 l 0.10322,0.33874 0.0933,-0.40651 c 0.0514,-0.22358 0.46538,-1.73452 0.92016,-3.35764 l 0.82686,-2.95116 1.63278,0.038 1.63281,0.0378 0.51691,1.69378 c 0.28429,0.93159 0.69997,2.39201 0.92372,3.24541 0.22373,0.85342 0.42832,1.57317 0.45461,1.59949 0.0263,0.0263 0.12195,-0.27563 0.2126,-0.6709 0.0906,-0.39529 0.50401,-1.89248 0.91864,-3.32711 l 0.75389,-2.6084 h 1.51722 1.51723 l -1.26921,4.43767 c -0.69806,2.44074 -1.3622,4.75781 -1.47587,5.14907 l -0.20667,0.71136 h -1.94403 -1.94403 l -0.69496,-2.48655 c -0.38223,-1.3676 -0.76429,-2.84626 -0.84907,-3.28591 -0.20019,-1.03827 -0.33541,-1.16843 -0.45685,-0.43973 -0.0899,0.53919 -0.76544,3.03675 -1.433,5.29757 l -0.27008,0.91462 h -1.78965 -1.78966 l -0.78212,-2.67592 z m 25.51117,-2.4727 v -5.14905 h 1.21955 1.2195 v 4.06504 4.06503 h 1.69377 1.69377 v 1.08403 1.08402 h -2.91328 -2.91331 z m 10.16266,0 v -5.14905 h 3.18429 3.18427 v 0.9485 0.94853 h -1.96475 -1.96479 v 1.08401 1.084 h 1.82927 1.82929 v 0.94851 0.94852 h -1.83457 -1.83453 l 0.0391,1.18564 0.0393,1.18563 1.93091,0.0375 1.9309,0.0375 v 0.9448 0.94479 h -3.18429 -3.1843 z m 37.943698,0 0.009,-5.14905 h 1.28126 1.28125 v 1.96476 1.96479 h 2.30354 2.30352 v -1.96479 -1.96476 h 1.21951 1.21952 v 5.14905 5.14907 h -1.21597 -1.21602 l -0.0375,-2.0664 -0.0374,-2.06638 -2.26965,-0.0373 -2.26966,-0.0372 v 2.10353 2.10356 h -1.29007 -1.29005 l 0.009,-5.14905 z m 16.6316,1.05013 -0.0358,-4.0989 -1.38888,-0.0385 -1.3889,-0.0385 v -1.01152 -1.01151 h 3.9973 3.9973 v 1.01625 1.01626 h -1.35502 -1.35503 v 4.13283 4.13277 h -1.21752 -1.21751 z m 11.00756,-0.0338 v -4.13282 h -1.35505 -1.35502 v -1.01626 -1.01625 h 3.99733 3.9973 v 1.01152 1.0115 l -1.38891,0.0385 -1.38889,0.0385 -0.0358,4.09893 -0.0358,4.09892 h -1.21754 -1.21752 z m 24.2548,-1.00047 v -5.13326 l 0.30487,-0.0817 c 0.50133,-0.1344 4.07383,-0.096 4.85485,0.0521 1.71437,0.32512 2.53024,1.10512 2.6607,2.54372 0.14948,1.64878 -0.57037,2.64768 -2.3063,3.20024 -0.25205,0.0801 -0.11116,0.31186 2.16482,3.56017 0.32266,0.46051 0.58666,0.87208 0.58666,0.91463 0,0.0426 -0.66583,0.0774 -1.47963,0.0774 h -1.47962 l -1.26429,-2.02627 c -0.69534,-1.1145 -1.31001,-2.02913 -1.36591,-2.03252 -0.0559,-0.003 -0.10163,0.90847 -0.10163,2.02633 v 2.03253 h -1.28728 -1.28725 z m 4.76043,-1.07563 c 0.4169,-0.46659 0.51703,-1.15713 0.24223,-1.67057 -0.20371,-0.38063 -0.93853,-0.65715 -1.74627,-0.65715 h -0.68186 v 1.43856 1.43855 l 0.89864,-0.0572 c 0.80631,-0.0514 0.93855,-0.10207 1.28726,-0.49217 z m 7.60249,5.7685 c 0.0374,-0.2422 0.39583,-2.56101 0.79685,-5.15286 l 0.72915,-4.71252 1.6178,0.0377 1.6178,0.0377 0.91872,2.84552 c 0.50531,1.56504 0.9908,3.16357 1.07889,3.55225 0.15747,0.69505 0.38567,0.84977 0.39475,0.26768 0.003,-0.16327 0.47815,-1.7298 1.05686,-3.48116 l 1.0522,-3.18429 1.63735,-0.0378 1.63734,-0.038 0.08,0.44443 c 0.17555,0.97447 1.44212,9.44778 1.44212,9.6478 0,0.17994 -0.20443,0.21398 -1.28469,0.21398 -1.22278,0 -1.28779,-0.0144 -1.34923,-0.30488 -0.0355,-0.16769 -0.24802,-1.67683 -0.47228,-3.35366 -0.22426,-1.67684 -0.42852,-3.20123 -0.45395,-3.38753 -0.0375,-0.27599 -0.0767,-0.22578 -0.21074,0.271 -0.0904,0.33536 -0.60014,1.99697 -1.1326,3.69242 l -0.96811,3.08265 h -1.32536 -1.32538 l -0.61074,-1.93089 c -0.33591,-1.06198 -0.8165,-2.64708 -1.06796,-3.52244 -0.49542,-1.72456 -0.63909,-2.02184 -0.63909,-1.32246 0,0.42075 -0.585,5.35794 -0.75066,6.33542 l -0.0745,0.44037 h -1.2311 -1.23112 z m 19.07348,-4.70869 v -5.14937 h 3.18428 3.1843 v 0.94851 0.9485 h -1.96478 -1.96477 v 1.08403 1.084 h 1.82928 1.82927 v 0.94851 0.94853 h -1.83455 -1.83455 l 0.0391,1.18563 0.0393,1.18563 1.9309,0.0375 1.93088,0.0375 v 0.94482 0.94477 h -3.18429 -3.18427 z m -44.29415,-6.69314 c -0.75708,-0.41962 -0.89479,-1.34167 -0.29979,-2.0076 0.32493,-0.36363 0.49089,-0.43941 0.96237,-0.43941 0.47149,0 0.63745,0.0758 0.96238,0.43941 0.43807,0.49025 0.4927,0.93266 0.18797,1.52189 -0.34461,0.66647 -1.11463,0.87274 -1.81293,0.48571 z m 4.03497,-0.0144 c -1.14672,-0.62321 -0.61548,-2.4329 0.71418,-2.4329 0.44724,0 0.62056,0.081 0.94087,0.43944 0.43805,0.49025 0.49271,0.93264 0.18799,1.52189 -0.34972,0.67627 -1.10897,0.87054 -1.84304,0.47157 z M 8.7050032,123.47153 v -5.21682 h 1.217531 1.2175308 l 0.03585,4.09894 0.03585,4.09893 1.727648,0.0379 1.727647,0.038 v 1.07996 1.07998 H 11.686016 8.7049732 Z m 9.3253408,4.22829 c 0.199668,-0.54369 1.06426,-2.89008 1.921299,-5.21421 l 1.558274,-4.22569 1.511128,-0.003 1.511142,-0.003 0.133957,0.37262 c 0.07377,0.20495 0.933345,2.53141 1.910285,5.16991 0.976943,2.63849 1.776253,4.81838 1.776253,4.84418 0,0.0257 -0.61166,0.0469 -1.359264,0.0469 -0.965706,0 -1.376309,-0.0489 -1.418112,-0.16937 -0.03234,-0.0932 -0.187855,-0.52156 -0.345544,-0.952 l -0.286683,-0.7826 -2.055364,0.0373 -2.055365,0.0373 -0.320913,0.91464 -0.320899,0.91465 h -1.261656 -1.26164 z m 6.257348,-2.79453 c 0,-0.0685 -0.280136,-0.90691 -0.622529,-1.86315 -0.342393,-0.95624 -0.651993,-1.83011 -0.687986,-1.9419 -0.04594,-0.14259 -1.475053,3.49544 -1.530332,3.89568 -0.0032,0.0185 0.635573,0.034 1.418095,0.034 0.782507,0 1.422752,-0.056 1.422752,-0.12454 z m 9.89163,-0.34976 v -4.13279 h -1.42276 -1.42278 v -1.084 -1.08403 h 3.99732 3.99728 v 1.08403 1.084 h -1.35501 -1.35502 v 4.13279 4.13282 h -1.21951 -1.21952 z m 8.26561,4.04941 c 0,-0.0755 2.18277,-6.00912 3.52244,-9.57542 l 0.29432,-0.78347 1.50741,0.0383 1.5074,0.0382 1.91704,5.18295 1.91704,5.18294 h -1.39546 -1.39545 l -0.30549,-0.9485 -0.30549,-0.94852 h -2.05823 -2.05822 l -0.33774,0.91464 -0.33776,0.91464 -1.2359,0.0389 c -0.67975,0.0215 -1.23591,-0.003 -1.23591,-0.0545 z m 6.6349,-3.60902 c -0.0582,-0.42094 -1.48706,-4.03805 -1.53894,-3.89568 -0.43057,1.18111 -1.30192,3.73962 -1.30192,3.8228 0,0.0587 0.64025,0.10681 1.42278,0.10681 0.78252,0 1.42066,-0.016 1.41808,-0.034 z m 8.27029,-1.52439 v -5.21682 h 2.4822 c 2.8747,0 3.59885,0.14739 4.43518,0.90302 0.63111,0.57016 0.85858,1.26242 0.77853,2.36915 -0.0803,1.11065 -0.57661,1.80749 -1.61363,2.26584 -0.53722,0.23744 -0.77816,0.41506 -0.7307,0.53873 0.039,0.10146 0.71337,1.12329 1.49874,2.2707 l 1.42796,2.0862 -1.53075,-4.1e-4 -1.5307,-4e-4 -1.2748,-2.03217 c -0.70113,-1.11759 -1.32613,-2.03208 -1.38889,-2.03208 -0.0628,0 -0.11419,0.91465 -0.11419,2.03253 v 2.03253 h -1.21952 -1.2195 z m 3.95727,-0.61519 c 0.65261,-0.18124 1.0563,-0.69977 1.0563,-1.35678 0,-0.28196 -0.0378,-0.61135 -0.0842,-0.732 -0.14191,-0.37001 -0.80881,-0.61581 -1.67063,-0.61581 h -0.81974 v 1.34371 c 0,0.9482 0.0498,1.36386 0.16939,1.41207 0.28593,0.11533 0.82244,0.0951 1.34884,-0.0512 z m 8.77989,0.61519 v -5.21682 h 1.67869 1.67869 l 2.00782,3.35366 c 1.10428,1.84453 2.05824,3.41368 2.11993,3.487 0.0616,0.0733 0.095,-1.43587 0.0736,-3.35378 l -0.0384,-3.48708 1.18567,1e-4 1.18562,1e-4 v 5.21682 5.21682 h -1.68003 -1.68004 l -1.60496,-2.60841 c -0.88276,-1.43462 -1.83246,-3.03524 -2.11045,-3.55693 l -0.50548,-0.9485 -0.003,3.55692 -0.003,3.55692 h -1.15174 -1.15178 z m 15.3117,0 v -5.21682 h 1.28725 1.28729 v 5.21682 5.21682 h -1.28729 -1.28725 z m 7.99461,0 v -5.21682 h 3.18429 3.18431 v 0.94481 0.94478 l -1.93091,0.0376 -1.9309,0.0376 v 1.084 1.08402 l 1.7954,0.0377 1.79539,0.0377 v 0.87289 0.87291 l -1.79539,0.0377 -1.7954,0.0377 -0.0393,1.18567 -0.0393,1.18562 h 1.97006 1.97004 v 1.01626 1.01627 h -3.18428 -3.1843 z m 17.750728,-0.0107 v -5.22827 l 2.94715,0.0483 c 2.76645,0.0453 2.98679,0.0678 3.59358,0.36643 0.90409,0.44499 1.6701,1.35452 1.85093,2.19776 0.19523,0.91034 0.18304,1.29803 -0.0673,2.14127 -0.45756,1.54072 -1.95748,2.53265 -4.05332,2.68056 l -1.15445,0.0815 v 1.4704 1.47039 h -1.55824 -1.55828 v -5.22828 z m 4.86766,-0.5426 c 0.33584,-0.28259 0.4169,-0.45476 0.4169,-0.88553 0,-0.6668 -0.29934,-1.13884 -0.84218,-1.32808 -0.52568,-0.18324 -1.32386,-0.18933 -1.33201,-0.01 -0.003,0.0746 -0.007,0.65381 -0.007,1.28729 0,0.63345 0.003,1.18224 0.007,1.21951 0.003,0.0373 0.30637,0.0677 0.67328,0.0677 0.52,0 0.75905,-0.0773 1.08401,-0.3508 z m 7.73401,0.55404 v -5.21681 h 2.06986 2.06991 l 1.21603,2.06564 c 0.66883,1.13611 1.47341,2.55379 1.78797,3.15042 l 0.57192,1.08478 0.003,-3.15043 0.003,-3.15041 h 1.42278 1.42277 v 5.22034 5.22036 l -2.04998,-0.0375 -2.04991,-0.0375 -1.15358,-1.96478 c -0.63447,-1.08062 -1.41844,-2.48307 -1.74213,-3.11653 l -0.58854,-1.15178 -0.001,3.15043 -10e-4,3.15041 h -1.49053 -1.49051 v -5.2168 z m 17.34422,5.1529 c 0,-0.0352 -0.67073,-2.34303 -1.49051,-5.12857 -0.8198,-2.78556 -1.49054,-5.10435 -1.49054,-5.15289 0,-0.0485 0.72803,-0.0882 1.61784,-0.0882 h 1.61783 l 0.33943,1.1179 c 0.66103,2.17679 1.43849,5.0204 1.43849,5.26141 0,0.4768 0.23843,0.38281 0.31981,-0.12613 0.0677,-0.42334 0.59007,-2.32322 1.59823,-5.81285 l 0.12719,-0.44039 h 1.60123 1.60122 l 0.82756,2.81166 c 0.45513,1.54642 0.86654,3.04032 0.91427,3.3198 0.11477,0.67203 0.28099,0.64387 0.40017,-0.0677 0.0847,-0.50608 0.49465,-1.98183 1.43023,-5.14908 l 0.27015,-0.91465 h 1.50058 c 1.48872,0 1.49999,0.002 1.42338,0.30488 -0.0426,0.16769 -0.70507,2.51491 -1.47246,5.21605 l -1.39523,4.91116 -1.92565,8.2e-4 -1.92564,8.1e-4 -0.21356,-0.71138 c -0.11751,-0.39128 -0.4877,-1.74798 -0.82278,-3.01493 -0.33504,-1.26694 -0.65845,-2.48644 -0.71864,-2.71003 l -0.10943,-0.40651 -0.15907,0.60976 c -0.0876,0.33538 -0.50827,1.875 -0.93508,3.42143 l -0.776,2.81166 h -1.79652 c -0.98809,-7e-5 -1.79652,-0.0288 -1.79652,-0.064 z m 17.34423,-9.3e-4 c 0,-0.0756 1.44619,-9.27315 1.56106,-9.92836 l 0.0772,-0.44039 1.92479,0.001 1.92475,0.001 0.77623,2.60693 c 0.42692,1.43382 0.84909,2.94228 0.93819,3.35218 l 0.16198,0.74527 0.12574,-0.47427 c 0.0693,-0.26083 0.52644,-1.76999 1.01608,-3.35367 l 0.89023,-2.8794 h 1.94141 c 1.06778,0 1.94141,0.0264 1.94141,0.0587 0,0.0831 1.46795,9.55089 1.55084,10.00232 l 0.0684,0.37262 h -1.62264 c -0.89244,0 -1.62261,-0.0537 -1.62261,-0.11934 0,-0.0656 -0.18293,-1.3839 -0.40651,-2.92934 -0.22358,-1.54546 -0.40651,-2.99782 -0.40651,-3.22746 0,-0.57405 -0.19929,-0.31046 -0.39122,0.51741 -0.0865,0.37264 -0.50138,1.82265 -0.9222,3.22228 l -0.76511,2.54476 -1.55471,-0.0379 -1.55472,-0.038 -0.70086,-2.43904 c -0.38548,-1.34146 -0.78172,-2.82163 -0.88054,-3.28926 -0.0989,-0.46764 -0.20153,-0.82841 -0.22823,-0.8017 -0.0267,0.0267 -0.20065,1.29346 -0.38655,2.81502 -0.18592,1.52156 -0.3742,2.99512 -0.41842,3.27461 l -0.0804,0.50813 h -1.4786 c -0.81326,-4e-5 -1.47862,-0.0293 -1.47862,-0.0649 z M 23.745695,98.539979 v -0.88075 h 22.425527 22.42553 V 91.01963 84.380055 h 22.08681 22.086788 v 6.639575 6.639599 h 22.42554 22.42554 v 0.88075 0.88077 H 90.683562 23.745695 Z M 74.558842,64.325792 v -6.639585 h 16.12472 16.124698 v 6.639585 6.63959 H 90.683562 74.558842 Z m 4.33605,-26.693842 v -6.639586 h 11.78867 11.788648 v 6.639586 6.639585 H 90.683562 78.894892 Z m -47.69945,2.811661 c -0.0818,-0.316735 -0.17511,-0.667967 -0.2073,-0.780513 -0.0474,-0.165636 2.77514,-0.963397 14.81164,-4.186444 8.17858,-2.189998 14.94262,-4.008502 15.03125,-4.04112 0.0967,-0.0356 0.2218,0.17545 0.31294,0.527897 0.0836,0.322963 0.18288,0.694213 0.22087,0.825 0.0378,0.130782 -0.0101,0.264407 -0.10958,0.296934 -0.50369,0.166678 -29.64656,7.934128 -29.7682,7.934128 -0.0784,0 -0.20965,-0.259147 -0.29148,-0.575882 z M 134.78938,37.022293 c -14.45347,-3.886683 -14.76889,-3.978527 -14.73166,-4.289442 0.0845,-0.705083 0.32376,-1.354233 0.47836,-1.297317 0.0886,0.03261 6.85266,1.851122 15.03126,4.04112 12.03649,3.223047 14.85899,4.020808 14.81162,4.186444 -0.0322,0.112548 -0.12545,0.463778 -0.20728,0.780513 -0.10466,0.405332 -0.21747,0.572109 -0.38071,0.563146 -0.12762,-0.0071 -6.87825,-1.800015 -15.00159,-3.984464 z M 74.558842,14.325652 v -3.252043 h 16.12472 16.124698 v 3.252043 3.252041 H 90.683562 74.558842 Z m -28.7055,-1.150975 c -8.14913,-2.18842 -14.83991,-4.0022805 -14.86845,-4.0308035 -0.0285,-0.02851 0.0472,-0.399979 0.16822,-0.825462 0.16782,-0.589933 0.2717,-0.758868 0.43751,-0.71154 0.11955,0.03413 6.86378,1.839931 14.9871,4.0128855 8.12336,2.17295 14.79059,3.97107 14.81613,3.995819 0.11232,0.108895 -0.40956,1.554721 -0.55833,1.54683 -0.0911,-0.0048 -6.83305,-1.79931 -14.98218,-3.987729 z m 74.293078,3.241203 c -0.12084,-0.415419 -0.19869,-0.775554 -0.17315,-0.800304 0.0255,-0.02474 6.69276,-1.822869 14.81611,-3.995819 8.12334,-2.1729545 14.86755,-3.9787535 14.98711,-4.0128855 0.16582,-0.04732 0.26969,0.121599 0.43751,0.71154 0.12112,0.425483 0.19677,0.7969 0.1683,0.825374 -0.0573,0.05737 -29.76167,8.0274025 -29.91815,8.0274025 -0.0538,0 -0.19695,-0.339888 -0.31773,-0.755308 z M 81.333942,7.6183155 v -3.319792 h 9.34962 9.349618 v 3.319792 3.3197935 h -9.349618 -9.34962 z"
       id="path21" />
  </g>
</svg>
